<?xml version="1.0" encoding="UTF-8" standalone="no"?>
<!DOCTYPE svg PUBLIC "-//W3C//DTD SVG 1.1//EN" "http://www.w3.org/Graphics/SVG/1.1/DTD/svg11.dtd">
<svg width="100%" height="100%" viewBox="0 0 2114 2827" version="1.1" xmlns="http://www.w3.org/2000/svg" xmlns:xlink="http://www.w3.org/1999/xlink" xml:space="preserve" xmlns:serif="http://www.serif.com/" style="fill-rule:evenodd;clip-rule:evenodd;stroke-miterlimit:10;">
    <g id="Ebene-1" serif:id="Ebene 1" transform="matrix(4.16667,0,0,4.16667,0,0)">
        <g transform="matrix(1,0,0,1,434.072,678.257)">
            <path d="M0,-678.257C-5.523,-671.144 -12.341,-664.958 -19.752,-659.617C-27.184,-654.284 -35.246,-649.776 -43.678,-646.086C-60.54,-638.643 -78.831,-634.476 -97.269,-633.054C-99.575,-632.894 -101.886,-632.736 -104.198,-632.674L-105.933,-632.616L-106.8,-632.588L-107.731,-632.572L-111.077,-632.547C-115.765,-632.571 -120.409,-632.716 -125.003,-633.044C-134.21,-633.711 -143.327,-634.941 -152.259,-636.527C-170.154,-639.677 -187.351,-643.856 -204.586,-646.633C-213.203,-648.043 -221.834,-649.099 -230.499,-649.773C-239.149,-650.397 -247.913,-650.699 -256.472,-650.384C-273.731,-649.722 -290.997,-646.892 -307.457,-641.795C-315.671,-639.215 -323.703,-636.08 -331.285,-632.145C-338.861,-628.219 -346.036,-623.534 -352.269,-617.841C-358.521,-612.184 -363.816,-605.507 -367.554,-597.976C-371.269,-590.445 -373.422,-582.107 -373.855,-573.569L-373.923,-571.966L-373.95,-571.237L-373.947,-570.401L-373.941,-568.728C-373.93,-568.187 -373.884,-567.699 -373.858,-567.181C-373.766,-565.148 -373.461,-563.004 -373.105,-560.94C-372.349,-556.784 -370.988,-552.744 -369.209,-548.894C-365.614,-541.194 -360.038,-534.424 -353.352,-529.033C-346.642,-523.647 -338.863,-519.577 -330.646,-516.846C-322.431,-514.076 -313.771,-512.66 -305.095,-512.306C-300.752,-512.146 -296.401,-512.25 -292.067,-512.588C-287.735,-512.972 -283.426,-513.594 -279.159,-514.421C-274.89,-515.241 -270.673,-516.332 -266.516,-517.598C-262.353,-518.848 -258.26,-520.325 -254.24,-521.978C-246.183,-525.238 -238.461,-529.291 -231.025,-533.768C-223.618,-538.309 -216.508,-543.326 -209.74,-548.773C-202.976,-554.227 -196.517,-560.055 -190.336,-566.171C-188.772,-567.677 -187.282,-569.265 -185.758,-570.816L-184.619,-571.982L-183.518,-573.15C-182.771,-573.956 -182.164,-574.632 -181.468,-575.438C-178.795,-578.548 -176.354,-581.785 -174.569,-585.026C-172.766,-588.22 -171.745,-591.59 -171.917,-593.664C-171.987,-594.711 -172.259,-595.325 -172.666,-595.896C-173.08,-596.462 -173.799,-597.048 -174.895,-597.593C-177.1,-598.697 -180.577,-599.194 -184.118,-598.992C-187.693,-598.802 -191.444,-598.044 -195.106,-596.863C-202.456,-594.497 -209.496,-590.526 -215.65,-585.418C-221.806,-580.298 -227.169,-574.047 -231.319,-566.911C-235.471,-559.78 -238.476,-551.827 -240.235,-543.498C-241.103,-539.331 -241.691,-535.078 -241.983,-530.783C-242.153,-528.624 -242.191,-526.518 -242.24,-524.253C-242.282,-522.026 -242.355,-519.783 -242.359,-517.569C-242.47,-508.706 -242.247,-499.796 -241.909,-490.915C-241.565,-482.028 -241.046,-473.147 -240.386,-464.273C-239.071,-446.524 -237.073,-428.823 -234.946,-411.122C-230.684,-375.733 -225.904,-340.249 -225.24,-304.047C-224.966,-285.969 -225.772,-267.696 -228.783,-249.572C-231.803,-231.492 -237.045,-213.477 -245.734,-197.044C-247.875,-192.928 -250.37,-189.004 -252.925,-185.145C-255.552,-181.328 -258.362,-177.649 -261.326,-174.112C-264.342,-170.62 -267.407,-167.18 -270.704,-163.98C-272.299,-162.326 -274.011,-160.8 -275.658,-159.206C-275.839,-159.031 -276.11,-158.778 -276.31,-158.601L-276.935,-158.037L-278.317,-156.849C-279.219,-156.077 -280.144,-155.343 -281.077,-154.623C-288.575,-148.922 -296.686,-144.428 -305.046,-140.599C-313.408,-136.764 -322.034,-133.589 -330.84,-130.931C-339.65,-128.287 -348.647,-126.136 -357.856,-124.719C-367.065,-123.333 -376.486,-122.586 -386.136,-123.196C-390.959,-123.506 -395.844,-124.144 -400.762,-125.338C-405.679,-126.52 -410.647,-128.262 -415.492,-130.971C-420.289,-133.688 -425.049,-137.526 -428.502,-142.773C-432.011,-147.963 -433.854,-154.336 -434.043,-160.23L-434.068,-161.334C-434.078,-161.683 -434.067,-162.474 -434.06,-162.525C-434.057,-162.739 -434.045,-163.104 -434.004,-163.682C-433.972,-164.195 -433.927,-164.685 -433.872,-165.085C-433.667,-166.792 -433.292,-168.493 -432.763,-170.13C-431.704,-173.411 -430.033,-176.396 -428.064,-178.898C-424.08,-183.91 -419.253,-187.184 -414.482,-189.629C-409.671,-192.047 -404.802,-193.687 -399.948,-194.863C-395.09,-196.034 -390.251,-196.772 -385.435,-197.188C-375.805,-198.019 -366.293,-197.613 -356.959,-196.46C-347.623,-195.298 -338.467,-193.289 -329.543,-190.633C-293.859,-179.955 -261.811,-158.755 -238.324,-130.119C-232.47,-122.964 -227.219,-115.259 -222.6,-107.278C-217.993,-99.272 -213.919,-90.959 -210.549,-82.306C-207.188,-73.652 -204.465,-64.675 -202.91,-55.272C-202.123,-50.573 -201.647,-45.765 -201.655,-40.836C-201.661,-35.917 -202.154,-30.852 -203.53,-25.764C-204.895,-20.704 -207.282,-15.526 -211.1,-11.183C-212.994,-9.02 -215.218,-7.093 -217.646,-5.543C-220.074,-3.991 -222.683,-2.809 -225.316,-1.958C-227.95,-1.11 -230.614,-0.557 -233.226,-0.289C-234.534,-0.137 -235.833,-0.059 -237.119,-0.025L-239.041,0C-239.621,-0.004 -239.682,-0.018 -240.027,-0.026C-240.25,-0.028 -240.747,-0.062 -241.118,-0.086C-244.09,-0.307 -246.966,-0.936 -249.773,-2.101C-252.56,-3.251 -255.135,-4.921 -257.303,-6.892C-261.673,-10.865 -264.416,-15.766 -266.218,-20.579C-268.021,-25.428 -268.999,-30.302 -269.514,-35.114C-270.513,-44.746 -269.878,-54.152 -268.44,-63.32C-265.447,-81.638 -259.294,-99.102 -250.815,-115.313C-246.558,-123.41 -241.675,-131.188 -236.083,-138.456C-230.497,-145.724 -224.187,-152.487 -217.071,-158.384L-215.726,-159.476L-214.375,-160.531C-213.511,-161.211 -212.589,-161.912 -211.662,-162.609C-209.821,-163.996 -207.97,-165.304 -206.089,-166.604C-202.316,-169.168 -198.443,-171.577 -194.504,-173.869C-186.622,-178.455 -178.422,-182.485 -169.963,-186.02C-161.483,-189.5 -152.729,-192.466 -143.596,-194.542C-134.461,-196.572 -124.929,-197.771 -114.875,-196.786C-109.863,-196.221 -104.677,-195.099 -99.604,-192.701C-97.078,-191.502 -94.57,-190 -92.28,-188.081C-89.986,-186.176 -87.896,-183.884 -86.195,-181.319C-82.766,-176.16 -81.121,-170.098 -80.8,-164.503C-80.749,-163.798 -80.745,-163.108 -80.722,-162.408C-80.707,-162.354 -80.713,-161.291 -80.728,-161.113L-80.757,-160.278C-80.763,-160.028 -80.773,-159.731 -80.828,-159.211L-80.974,-157.852C-81.022,-157.377 -81.096,-156.985 -81.169,-156.594L-81.396,-155.405C-82.08,-152.24 -83.371,-149.143 -85.088,-146.424C-86.799,-143.694 -88.906,-141.335 -91.168,-139.376C-93.427,-137.404 -95.842,-135.82 -98.279,-134.5C-103.175,-131.878 -108.173,-130.285 -113.112,-129.198C-118.054,-128.136 -122.96,-127.625 -127.802,-127.451C-132.644,-127.273 -137.429,-127.472 -142.149,-127.92C-161.035,-129.803 -178.888,-135.555 -195.571,-143.313C-203.901,-147.237 -211.94,-151.732 -219.585,-156.839C-227.071,-161.974 -234.406,-167.033 -241.745,-172.356C-249.044,-177.699 -256.236,-183.298 -263.073,-189.457C-269.91,-195.606 -276.373,-202.345 -282.098,-209.805C-283.571,-211.637 -284.876,-213.599 -286.265,-215.51C-287.553,-217.485 -288.912,-219.429 -290.098,-221.48C-292.591,-225.515 -294.755,-229.754 -296.766,-234.069C-300.679,-242.737 -303.75,-251.838 -305.718,-261.112C-307.73,-270.381 -308.857,-279.783 -309.252,-289.142L-309.391,-292.739L-309.432,-296.113C-309.42,-298.563 -309.392,-300.919 -309.283,-303.283C-309.078,-308.02 -308.675,-312.77 -308.021,-317.512C-306.698,-326.986 -304.473,-336.47 -300.877,-345.555C-297.303,-354.631 -292.406,-363.31 -286.173,-370.945C-279.97,-378.596 -272.472,-385.183 -264.172,-390.252C-255.88,-395.342 -246.826,-398.921 -237.586,-400.987C-228.338,-403.04 -218.88,-403.612 -209.638,-402.59C-200.411,-401.56 -191.331,-398.935 -183.271,-394.263C-175.238,-389.627 -168.279,-382.779 -164.107,-374.282C-162.013,-370.058 -160.59,-365.494 -159.854,-360.831C-159.674,-359.665 -159.522,-358.493 -159.421,-357.319C-159.377,-356.731 -159.316,-356.142 -159.296,-355.554L-159.212,-353.854L-159.133,-352.169L-159.094,-350.396C-159.092,-349.23 -159.093,-348.07 -159.141,-346.904C-159.48,-337.611 -161.4,-328.136 -166.152,-319.515C-167.337,-317.361 -168.753,-315.289 -170.409,-313.329C-172.082,-311.382 -174.016,-309.534 -176.414,-308.024C-178.805,-306.546 -181.764,-305.322 -185.195,-305.329C-186.891,-305.336 -188.649,-305.682 -190.243,-306.345C-191.842,-307.003 -193.258,-307.954 -194.438,-309.019C-196.819,-311.166 -198.274,-313.695 -199.375,-316.134C-200.475,-318.597 -201.177,-321.057 -201.675,-323.492C-202.171,-325.928 -202.495,-328.337 -202.669,-330.728C-202.743,-331.919 -202.815,-333.111 -202.84,-334.292C-202.864,-334.886 -202.87,-335.475 -202.871,-336.064L-202.875,-336.946C-202.878,-337.152 -202.871,-337.661 -202.859,-337.911C-202.748,-347.131 -200.897,-357.155 -195.896,-365.711C-194.672,-367.854 -193.209,-369.849 -191.673,-371.757C-190.074,-373.609 -188.415,-375.408 -186.588,-376.983C-182.993,-380.215 -178.997,-382.791 -174.961,-385.096C-166.825,-389.608 -158.387,-392.919 -150.083,-396.267C-141.77,-399.596 -133.54,-402.918 -125.532,-406.61C-117.533,-410.311 -109.762,-414.397 -102.434,-419.113C-87.732,-428.481 -74.938,-440.431 -64.594,-454.187C-61.979,-457.605 -59.574,-461.181 -57.223,-464.782C-54.937,-468.432 -52.711,-472.116 -50.685,-475.923C-46.604,-483.493 -42.834,-491.364 -39.814,-499.263C-38.307,-503.215 -36.965,-507.185 -35.947,-511.133C-34.921,-515.069 -34.18,-519 -34,-522.668C-33.789,-526.303 -34.217,-529.745 -35.232,-531.799C-35.737,-532.821 -36.265,-533.471 -36.842,-533.905C-37.418,-534.343 -38.124,-534.661 -39.172,-534.843C-41.253,-535.223 -44.481,-534.751 -47.682,-533.492C-50.915,-532.255 -54.186,-530.334 -57.277,-528.061C-63.49,-523.487 -68.979,-517.451 -73.566,-510.794C-75.863,-507.457 -77.92,-503.929 -79.772,-500.287C-80.695,-498.463 -81.562,-496.607 -82.368,-494.721C-82.769,-493.777 -83.158,-492.828 -83.533,-491.871L-84.66,-488.882C-87.747,-480.653 -90.588,-472.376 -93.199,-464.037C-98.376,-447.375 -102.561,-430.401 -104.38,-413.406C-105.268,-404.926 -105.495,-396.43 -104.591,-388.264C-104.121,-384.195 -103.363,-380.212 -102.191,-376.478C-101.018,-372.756 -99.443,-369.258 -97.359,-366.355C-95.3,-363.425 -92.746,-361.128 -89.815,-359.645C-86.886,-358.158 -83.533,-357.501 -79.992,-357.664C-76.451,-357.823 -72.774,-358.815 -69.228,-360.363C-65.672,-361.909 -62.246,-364.03 -59.022,-366.494C-52.57,-371.452 -46.962,-377.799 -42.238,-384.773C-37.494,-391.754 -33.596,-399.397 -30.484,-407.385C-28.917,-411.394 -27.6,-415.438 -26.4,-419.654C-25.148,-423.98 -23.836,-428.284 -22.508,-432.592C-21.149,-436.89 -19.806,-441.197 -18.329,-445.481C-16.877,-449.78 -15.372,-454.046 -13.563,-458.367C-13.104,-459.454 -12.63,-460.54 -12.063,-461.678C-11.774,-462.252 -11.476,-462.828 -11.063,-463.497C-10.845,-463.841 -10.627,-464.194 -10.207,-464.699C-9.761,-463.95 -9.863,-468.822 -2.745,-464.926C-0.989,-461.913 -1.836,-462.054 -1.576,-461.297C-1.575,-460.772 -1.606,-460.381 -1.641,-460.002C-1.712,-459.264 -1.81,-458.624 -1.916,-458.002C-2.133,-456.763 -2.373,-455.604 -2.633,-454.457C-3.69,-449.9 -4.915,-445.543 -6.185,-441.183C-8.701,-432.475 -11.45,-423.897 -13.988,-415.224L-13.553,-417.822L-13.553,-417.821C-13.903,-411.414 -14.009,-405.011 -14.029,-398.609C-14.036,-392.208 -13.935,-385.808 -13.758,-379.408C-13.579,-373.009 -13.347,-366.609 -12.993,-360.209C-12.648,-353.808 -12.181,-347.408 -11.735,-340.995C-11.294,-334.582 -10.866,-328.156 -10.666,-321.707C-10.455,-315.259 -10.452,-308.789 -10.642,-302.301C-10.857,-295.811 -11.25,-289.302 -11.995,-282.778C-12.738,-276.256 -13.764,-269.719 -15.32,-263.2C-16.893,-256.695 -18.929,-250.157 -22.169,-243.922C-23.798,-240.816 -25.716,-237.787 -28.012,-234.977C-30.299,-232.164 -33.005,-229.601 -36.024,-227.464C-39.042,-225.327 -42.357,-223.596 -45.793,-222.378C-49.223,-221.138 -52.754,-220.371 -56.255,-219.947C-58.007,-219.728 -59.752,-219.623 -61.489,-219.556L-64.131,-219.532L-65.331,-219.557L-66.676,-219.615C-70.148,-219.794 -73.619,-220.264 -77.062,-221.022C-83.929,-222.549 -90.688,-225.423 -96.388,-229.855C-99.236,-232.057 -101.801,-234.632 -103.984,-237.487C-106.154,-240.355 -107.938,-243.5 -109.264,-246.827C-110.588,-250.156 -111.456,-253.674 -111.676,-257.316C-111.788,-259.135 -111.741,-260.986 -111.455,-262.861C-111.169,-264.733 -110.646,-266.645 -109.617,-268.503C-109.098,-269.428 -108.443,-270.34 -107.588,-271.15C-106.739,-271.957 -105.667,-272.646 -104.485,-273.047C-103.305,-273.445 -102.054,-273.557 -100.929,-273.422C-99.792,-273.299 -98.778,-272.965 -97.858,-272.564C-96.034,-271.733 -94.57,-270.618 -93.277,-269.427C-91.989,-268.227 -90.865,-266.944 -89.841,-265.611L-92.659,-263.088C-93.775,-264.133 -94.918,-265.121 -96.114,-265.941C-97.299,-266.763 -98.537,-267.439 -99.698,-267.776C-100.869,-268.113 -101.839,-268.04 -102.443,-267.702C-103.053,-267.371 -103.601,-266.707 -104.01,-265.683C-104.813,-263.621 -104.902,-260.778 -104.439,-258.082C-103.98,-255.356 -103.046,-252.653 -101.795,-250.129C-99.25,-245.075 -95.346,-240.787 -90.693,-237.681C-86.036,-234.549 -80.616,-232.599 -74.949,-231.638C-72.113,-231.151 -69.202,-230.935 -66.279,-230.881L-64.026,-230.876L-61.869,-230.938C-60.409,-230.996 -58.961,-231.096 -57.533,-231.24C-51.828,-231.829 -46.4,-233.213 -41.816,-236.093C-37.189,-238.894 -33.527,-243.277 -30.928,-248.439C-28.305,-253.6 -26.603,-259.422 -25.437,-265.402C-24.263,-271.39 -23.644,-277.572 -23.224,-283.792C-23.016,-286.903 -22.853,-290.028 -22.752,-293.167C-22.609,-296.3 -22.558,-299.45 -22.484,-302.601L-21.993,-340.686C-21.934,-347.066 -21.939,-353.455 -22.107,-359.843C-22.268,-366.231 -22.588,-372.618 -22.97,-379.005C-23.354,-385.391 -23.82,-391.778 -24.378,-398.163C-24.95,-404.548 -25.591,-410.932 -26.447,-417.313L-26.447,-417.315L-26.35,-419.23L-26.011,-419.914C-22.075,-427.868 -18.604,-436.024 -15.522,-444.26C-14.012,-448.377 -12.573,-452.543 -11.461,-456.642C-11.186,-457.66 -10.926,-458.676 -10.735,-459.631C-10.638,-460.105 -10.558,-460.567 -10.51,-460.938L-10.47,-461.313C-10.227,-461.101 -11.051,-461.84 -9.603,-459.302C-2.968,-455.865 -3.613,-460.039 -3.486,-458.951C-3.427,-459.03 -3.521,-458.919 -3.603,-458.793C-3.782,-458.517 -4.011,-458.11 -4.229,-457.69C-4.672,-456.839 -5.111,-455.888 -5.535,-454.927C-8.87,-447.067 -11.524,-438.544 -13.865,-430.06C-15.044,-425.804 -16.115,-421.509 -17.144,-417.209C-18.187,-412.79 -19.463,-408.285 -20.968,-403.916C-23.97,-395.146 -27.896,-386.618 -32.95,-378.677C-38.014,-370.756 -44.15,-363.358 -51.71,-357.229C-55.496,-354.182 -59.633,-351.445 -64.21,-349.308C-68.775,-347.175 -73.806,-345.624 -79.182,-345.2C-84.532,-344.765 -90.271,-345.61 -95.391,-348.013C-100.522,-350.385 -104.858,-354.174 -108.057,-358.437C-111.306,-362.705 -113.544,-367.403 -115.213,-372.121C-116.87,-376.855 -117.927,-381.649 -118.638,-386.419C-120.008,-395.966 -120.022,-405.422 -119.363,-414.706C-118.708,-423.999 -117.346,-433.138 -115.554,-442.142C-113.754,-451.144 -111.562,-460.022 -109.039,-468.778C-106.514,-477.528 -103.688,-486.181 -100.633,-494.707L-100.07,-496.282L-99.436,-497.993C-99.008,-499.118 -98.561,-500.236 -98.102,-501.351C-97.175,-503.576 -96.177,-505.775 -95.105,-507.942C-92.968,-512.279 -90.529,-516.484 -87.786,-520.509C-82.302,-528.557 -75.642,-535.94 -67.468,-541.959C-63.364,-544.948 -58.872,-547.592 -53.757,-549.527C-51.196,-550.485 -48.473,-551.262 -45.528,-551.695C-42.588,-552.122 -39.404,-552.211 -36.045,-551.565C-32.712,-550.944 -29.18,-549.476 -26.278,-547.107C-23.348,-544.764 -21.222,-541.67 -19.911,-538.627C-18.588,-535.568 -17.955,-532.546 -17.661,-529.693C-17.378,-526.834 -17.404,-524.105 -17.641,-521.486C-18.117,-516.249 -19.25,-511.406 -20.668,-506.767C-22.107,-502.136 -23.827,-497.71 -25.733,-493.421C-29.571,-484.84 -34.026,-476.826 -38.971,-469.009C-41.424,-465.098 -44.088,-461.311 -46.813,-457.581C-49.604,-453.892 -52.457,-450.252 -55.529,-446.791C-58.585,-443.32 -61.748,-439.944 -65.095,-436.757C-68.429,-433.56 -71.855,-430.464 -75.451,-427.579C-82.604,-421.763 -90.265,-416.632 -98.201,-412.108C-106.132,-407.562 -114.376,-403.689 -122.697,-400.185C-131.013,-396.66 -139.45,-393.585 -147.72,-390.33C-155.973,-387.065 -164.116,-383.594 -171.391,-379.069C-178.623,-374.535 -184.823,-368.771 -188.335,-361.576C-190.157,-358.024 -191.331,-354.147 -192.062,-350.144C-192.433,-348.142 -192.675,-346.096 -192.841,-344.035L-193.007,-341.017C-193.041,-339.963 -193.031,-338.803 -193.045,-337.701C-193.05,-337.395 -193.045,-337.346 -193.036,-336.993L-193.019,-336.204C-193.012,-335.677 -193,-335.152 -192.971,-334.63C-192.936,-333.581 -192.857,-332.547 -192.781,-331.513C-192.591,-329.458 -192.345,-327.435 -191.943,-325.499C-191.541,-323.57 -191.032,-321.708 -190.333,-320.085C-189.654,-318.452 -188.762,-317.065 -187.848,-316.183C-186.913,-315.292 -186.079,-314.911 -185.025,-314.846C-183.971,-314.773 -182.574,-315.132 -181.149,-315.925C-179.728,-316.732 -178.294,-317.88 -176.979,-319.239C-175.673,-320.615 -174.447,-322.162 -173.353,-323.844C-168.957,-330.606 -166.384,-338.91 -165.408,-347.361C-165.28,-348.419 -165.197,-349.489 -165.115,-350.551L-165.026,-352.124L-164.975,-353.785L-164.939,-355.43C-164.92,-355.958 -164.941,-356.482 -164.943,-357.009C-164.961,-358.062 -165.025,-359.111 -165.113,-360.159C-165.512,-364.342 -166.534,-368.475 -168.264,-372.315C-169.966,-376.169 -172.389,-379.7 -175.296,-382.786C-178.225,-385.857 -181.654,-388.465 -185.393,-390.534C-192.873,-394.7 -201.474,-396.767 -210.023,-396.963C-218.592,-397.155 -227.134,-395.484 -234.95,-392.338C-242.784,-389.206 -249.872,-384.594 -255.938,-379.092C-262.004,-373.563 -267.06,-367.161 -271.208,-360.28C-275.339,-353.378 -278.603,-346.007 -281.163,-338.334C-283.724,-330.662 -285.588,-322.673 -286.801,-314.491C-287.41,-310.401 -287.842,-306.259 -288.148,-302.088C-288.303,-299.999 -288.418,-297.896 -288.502,-295.886L-288.609,-292.569L-288.642,-289.474C-288.755,-280.994 -288.445,-272.56 -287.482,-264.232C-286.533,-255.899 -284.824,-247.71 -282.312,-239.736C-281.005,-235.773 -279.562,-231.832 -277.789,-228.028C-276.964,-226.093 -275.964,-224.245 -275.034,-222.351C-274.002,-220.516 -273.022,-218.638 -271.883,-216.853C-267.507,-209.593 -262.132,-202.859 -256.167,-196.589C-250.185,-190.325 -243.548,-184.592 -236.605,-179.19C-229.651,-173.828 -222.339,-168.681 -214.981,-163.912C-207.667,-159.286 -199.818,-155.503 -191.712,-152.486C-183.601,-149.474 -175.206,-147.286 -166.753,-145.817C-158.304,-144.325 -149.768,-143.618 -141.385,-143.642C-133.019,-143.659 -124.727,-144.5 -117.217,-146.463C-113.494,-147.474 -109.968,-148.771 -107.022,-150.432C-104.063,-152.081 -101.804,-154.079 -100.471,-156.151C-99.808,-157.199 -99.297,-158.257 -99.019,-159.451L-98.918,-159.903C-98.879,-160.059 -98.839,-160.213 -98.836,-160.294C-98.821,-160.395 -98.802,-160.494 -98.776,-160.595C-98.747,-160.628 -98.726,-160.887 -98.709,-161.195L-98.654,-162.029C-98.625,-162.408 -98.657,-161.904 -98.645,-162.406C-98.646,-162.822 -98.619,-163.249 -98.633,-163.656C-98.704,-166.956 -99.375,-169.816 -100.707,-172.234C-102.017,-174.663 -104.124,-176.764 -106.989,-178.499C-109.853,-180.212 -113.375,-181.502 -117.157,-182.362C-124.777,-184.081 -133.291,-184.161 -141.732,-183.313C-150.206,-182.448 -158.708,-180.577 -166.976,-177.91C-183.531,-172.603 -199.176,-163.991 -212.596,-152.989C-219.217,-147.484 -225.081,-141.033 -230.217,-134.046C-235.348,-127.047 -239.758,-119.504 -243.487,-111.647C-247.221,-103.789 -250.253,-95.603 -252.638,-87.264C-255.025,-78.926 -256.716,-70.406 -257.612,-61.883C-258.479,-53.376 -258.603,-44.796 -257.329,-36.708C-256.681,-32.683 -255.719,-28.777 -254.243,-25.318C-252.777,-21.863 -250.829,-18.872 -248.471,-16.925C-247.297,-15.944 -246.041,-15.208 -244.688,-14.688C-243.359,-14.17 -241.81,-13.883 -240.335,-13.815C-240.149,-13.811 -240.09,-13.793 -239.754,-13.795C-239.542,-13.796 -239.046,-13.786 -239.068,-13.795L-237.646,-13.854C-237.167,-13.859 -236.71,-13.92 -236.246,-13.958C-235.784,-14.002 -235.314,-14.026 -234.87,-14.105C-233.046,-14.319 -231.327,-14.729 -229.727,-15.276C-226.52,-16.379 -223.882,-18.115 -221.816,-20.512C-219.758,-22.91 -218.219,-26.004 -217.266,-29.541C-216.305,-33.07 -215.833,-36.951 -215.79,-40.947C-215.714,-44.942 -216.049,-49.051 -216.613,-53.168C-217.182,-57.288 -218.038,-61.42 -219.088,-65.527C-220.119,-69.638 -221.386,-73.719 -222.794,-77.76C-225.649,-85.831 -229.129,-93.744 -233.25,-101.303C-237.366,-108.878 -242.024,-116.093 -247.439,-122.778C-258.223,-136.114 -271.41,-147.666 -286.038,-156.69C-293.357,-161.211 -301.04,-165.127 -308.972,-168.407C-316.911,-171.668 -325.093,-174.301 -333.398,-176.286C-341.708,-178.251 -350.148,-179.557 -358.572,-180.148C-366.99,-180.739 -375.416,-180.57 -383.539,-179.52C-387.59,-178.968 -391.575,-178.23 -395.354,-177.152C-399.131,-176.092 -402.732,-174.745 -405.846,-173.051C-408.959,-171.384 -411.567,-169.347 -413.089,-167.296C-413.85,-166.273 -414.37,-165.294 -414.671,-164.322C-414.823,-163.836 -414.925,-163.348 -414.982,-162.84C-415.005,-162.688 -415.004,-162.621 -415.008,-162.578C-415.017,-162.601 -415.029,-162.407 -415.031,-162.065C-415.043,-161.559 -415.039,-161.791 -415.03,-161.583L-415.015,-161.015C-414.865,-158.007 -414.129,-155.488 -412.651,-153.252C-411.193,-151.015 -408.932,-148.959 -406.045,-147.194C-403.165,-145.417 -399.708,-143.99 -396.021,-142.843C-394.174,-142.278 -392.261,-141.778 -390.311,-141.335C-388.355,-140.904 -386.36,-140.54 -384.337,-140.214C-376.23,-138.976 -367.72,-138.529 -359.168,-138.787C-350.608,-139.031 -341.973,-139.928 -333.456,-141.545C-324.939,-143.159 -316.529,-145.487 -308.462,-148.627C-300.434,-151.805 -292.651,-155.754 -286.007,-160.971C-285.183,-161.625 -284.369,-162.289 -283.585,-162.979C-283.183,-163.326 -282.83,-163.662 -282.457,-164.001L-281.854,-164.574C-281.642,-164.774 -281.512,-164.906 -281.296,-165.124C-279.778,-166.674 -278.222,-168.189 -276.791,-169.816C-273.848,-172.998 -271.146,-176.38 -268.564,-179.832C-263.466,-186.792 -259.065,-194.196 -255.373,-201.932C-253.534,-205.801 -251.802,-209.725 -250.333,-213.758C-249.547,-215.752 -248.908,-217.807 -248.204,-219.832C-247.587,-221.893 -246.905,-223.928 -246.374,-226.016C-244.078,-234.308 -242.523,-242.825 -241.423,-251.419C-239.327,-268.64 -239.104,-286.169 -239.535,-303.754C-239.969,-321.352 -241.074,-339.035 -242.188,-356.786C-243.313,-374.536 -244.439,-392.357 -245.396,-410.211C-247.292,-445.938 -248.918,-481.681 -249.832,-517.521C-249.94,-522.011 -250.152,-526.382 -250.159,-531.071C-250.14,-535.694 -249.881,-540.34 -249.326,-544.982C-248.212,-554.255 -245.896,-563.559 -241.923,-572.33C-237.976,-581.092 -232.395,-589.312 -225.271,-596.123C-218.156,-602.924 -209.618,-608.403 -200.021,-611.677C-195.219,-613.299 -190.156,-614.402 -184.812,-614.615C-182.143,-614.725 -179.395,-614.604 -176.577,-614.153C-173.763,-613.693 -170.85,-612.895 -167.948,-611.429C-165.069,-609.975 -162.159,-607.732 -160.039,-604.608C-157.899,-601.504 -156.816,-597.682 -156.746,-594.273C-156.649,-590.836 -157.311,-587.747 -158.264,-585.033C-159.217,-582.303 -160.443,-579.875 -161.786,-577.634C-167.174,-568.705 -174.379,-562.306 -181.051,-556.269C-187.888,-550.179 -195.068,-544.462 -202.572,-539.197C-210.091,-533.952 -217.943,-529.177 -226.069,-524.935C-234.225,-520.748 -242.651,-517.072 -251.352,-514.187C-268.701,-508.376 -287.114,-505.337 -305.409,-506.65C-314.541,-507.281 -323.612,-509.037 -332.288,-512.046C-340.944,-515.082 -349.207,-519.412 -356.446,-525.176C-360.081,-528.034 -363.39,-531.317 -366.37,-534.882C-369.345,-538.454 -371.942,-542.365 -374.024,-546.556C-376.114,-550.741 -377.715,-555.189 -378.748,-559.777C-379.234,-562.091 -379.647,-564.361 -379.852,-566.779C-379.905,-567.374 -379.973,-567.997 -380.01,-568.57L-380.091,-570.241L-380.131,-571.077C-380.15,-571.513 -380.138,-571.698 -380.143,-572.021L-380.147,-573.764C-380.063,-583.057 -378.276,-592.486 -374.523,-601.176C-370.803,-609.875 -365.282,-617.777 -358.676,-624.475C-355.381,-627.839 -351.829,-630.927 -348.098,-633.752C-344.375,-636.592 -340.474,-639.172 -336.448,-641.507C-328.407,-646.208 -319.901,-649.975 -311.198,-653.05C-302.489,-656.121 -293.561,-658.462 -284.54,-660.237C-275.516,-662.023 -266.385,-663.191 -257.198,-663.853C-247.935,-664.502 -238.828,-664.485 -229.664,-664.14C-225.09,-663.937 -220.519,-663.649 -215.963,-663.237C-211.412,-662.804 -206.867,-662.309 -202.353,-661.692C-193.313,-660.496 -184.388,-658.877 -175.576,-657.174C-166.773,-655.446 -158.08,-653.629 -149.464,-652.018C-140.842,-650.407 -132.283,-649.05 -123.71,-648.165C-119.412,-647.75 -115.143,-647.424 -110.91,-647.248L-107.565,-647.146L-106.019,-647.116L-104.407,-647.096C-102.258,-647.056 -100.11,-647.106 -97.96,-647.131C-80.776,-647.502 -63.576,-649.986 -46.953,-654.949C-30.348,-659.931 -14.271,-667.317 0,-678.257" style="fill:white;fill-rule:nonzero;"/>
        </g>
        <g transform="matrix(1,0,0,1,493.073,431.438)">
            <path d="M0,-270.221C0,-270.221 0.606,-269.957 1.44,-269.446C2.329,-268.934 3.398,-268.176 4.387,-267.186C5.369,-266.197 6.275,-264.976 6.702,-263.541C6.926,-262.824 7.011,-262.053 7.004,-261.23C7.014,-260.408 7.024,-259.533 7.035,-258.61C7.129,-251.221 7.255,-240.665 7.238,-227.999C7.246,-221.666 7.2,-214.804 7.12,-207.548C6.998,-200.291 6.869,-192.638 6.736,-184.721C6.513,-176.804 6.35,-168.624 6.061,-160.312C5.774,-151.999 5.483,-143.555 5.192,-135.11C4.628,-118.221 3.988,-101.333 3.532,-85.5C3.296,-77.583 3.068,-69.93 2.853,-62.674C2.743,-59.045 2.638,-55.515 2.534,-52.101C2.409,-48.687 2.288,-45.388 2.173,-42.221C1.942,-35.888 1.674,-30.083 1.437,-24.937C1.192,-19.792 0.955,-15.305 0.726,-11.611C0.503,-7.917 0.354,-5.013 0.21,-3.035C0.073,-1.055 0,0 0,0L-6.002,0C-6.002,0 -6.075,-1.055 -6.212,-3.035C-6.356,-5.013 -6.505,-7.917 -6.728,-11.611C-6.957,-15.305 -7.194,-19.792 -7.439,-24.937C-7.676,-30.083 -7.944,-35.888 -8.175,-42.221C-8.29,-45.388 -8.411,-48.687 -8.536,-52.101C-8.64,-55.515 -8.745,-59.045 -8.854,-62.674C-9.07,-69.93 -9.298,-77.583 -9.534,-85.5C-9.99,-101.333 -10.63,-118.221 -11.194,-135.11C-11.485,-143.555 -11.776,-151.999 -12.063,-160.312C-12.352,-168.624 -12.515,-176.804 -12.738,-184.721C-12.871,-192.638 -13,-200.291 -13.122,-207.548C-13.202,-214.804 -13.248,-221.666 -13.24,-227.999C-13.257,-240.665 -13.131,-251.221 -13.037,-258.61C-13.026,-259.533 -13.016,-260.408 -13.006,-261.23C-13.013,-262.053 -12.928,-262.824 -12.704,-263.541C-12.277,-264.976 -11.371,-266.197 -10.389,-267.186C-9.4,-268.176 -8.331,-268.934 -7.442,-269.446C-6.608,-269.957 -6.002,-270.221 -6.002,-270.221L0,-270.221Z" style="fill:white;fill-rule:nonzero;"/>
        </g>
        <g transform="matrix(-0.707107,-0.707107,-0.707107,0.707107,481.215,495.687)">
            <path d="M-6.263,-15.119C-1.371,-15.12 2.595,-11.155 2.594,-6.262C2.595,-1.37 -1.371,2.596 -6.263,2.595C-11.155,2.595 -15.121,-1.37 -15.121,-6.262C-15.121,-11.155 -11.156,-15.12 -6.263,-15.119" style="fill:white;fill-rule:nonzero;"/>
        </g>
        <g transform="matrix(1,0,0,1,502.473,505.653)">
            <path d="M0,-22.573L0.098,-22.466C0.098,-22.466 0.388,-22.146 0.932,-21.548C1.205,-21.251 1.513,-20.856 1.85,-20.371C2.2,-19.896 2.563,-19.323 2.914,-18.647C3.616,-17.308 4.334,-15.578 4.625,-13.508C4.941,-11.454 4.872,-9.074 4.163,-6.677C3.801,-5.482 3.295,-4.286 2.619,-3.149C2.287,-2.577 1.904,-2.029 1.483,-1.5L1.172,-1.103L0.778,-0.644C0.504,-0.334 0.22,-0.03 -0.071,0.265C-0.246,0.451 -0.295,0.466 -0.377,0.529L-0.612,0.698L-0.85,0.866L-0.969,0.952C-0.759,0.73 -1.271,1.267 -1.228,1.219L-1.254,1.239L-1.306,1.277L-1.409,1.352C-1.968,1.752 -2.519,2.156 -3.136,2.485C-4.327,3.192 -5.661,3.677 -7,4.045C-9.708,4.734 -12.557,4.703 -15.215,3.984C-16.543,3.613 -17.819,3.071 -19.017,2.397C-19.597,2.027 -20.158,1.695 -20.832,1.151L-21.306,0.77C-21.398,0.697 -21.441,0.656 -21.476,0.624L-21.596,0.514L-22.261,-0.105C-23.216,-1.076 -24.055,-2.168 -24.764,-3.349C-25.437,-4.547 -25.979,-5.823 -26.351,-7.151C-27.07,-9.81 -27.101,-12.659 -26.411,-15.367C-26.229,-16.037 -26.019,-16.708 -25.759,-17.354L-25.34,-18.313C-25.19,-18.636 -24.944,-19.033 -24.734,-19.383C-24.17,-20.26 -24.111,-20.389 -23.889,-20.775C-23.614,-21.101 -23.341,-21.426 -23.07,-21.747C-22.844,-22.002 -22.627,-22.265 -22.383,-22.502C-20.47,-24.445 -18.082,-25.829 -15.688,-26.529C-13.292,-27.238 -10.912,-27.307 -8.858,-26.991C-6.788,-26.7 -5.058,-25.982 -3.719,-25.28C-3.385,-25.099 -3.068,-24.926 -2.779,-24.75C-2.468,-24.555 -2.115,-24.3 -1.827,-24.09C-1.529,-23.87 -1.258,-23.663 -1.017,-23.466C-0.897,-23.362 -0.789,-23.269 -0.692,-23.185C-0.387,-22.915 -0.224,-22.771 -0.224,-22.771L0,-22.573ZM-12.052,-9.685C-12.052,-9.685 -12.211,-9.833 -12.511,-10.109C-12.548,-10.144 -12.588,-10.18 -12.629,-10.219C-12.661,-10.248 -12.748,-10.332 -12.699,-10.277C-12.659,-10.228 -12.607,-10.182 -12.549,-10.138C-12.501,-10.099 -12.396,-10.045 -12.369,-10.033C-12.371,-10.029 -12.365,-10.039 -12.358,-10.052C-12.342,-10.087 -12.313,-10.157 -12.329,-10.274C-12.346,-10.383 -12.401,-10.573 -12.569,-10.776C-12.729,-10.96 -13.002,-11.195 -13.44,-11.288C-13.499,-11.304 -13.543,-11.294 -13.604,-11.302L-13.693,-11.308L-13.742,-11.312C-13.961,-11.085 -13.451,-11.624 -13.51,-11.563L-13.524,-11.552L-13.555,-11.531L-13.614,-11.489C-13.898,-11.3 -14.396,-10.883 -14.269,-11.105C-14.285,-11.135 -14.293,-11.227 -14.349,-11.212L-14.538,-11.142C-14.67,-11.092 -14.792,-11.021 -14.912,-10.936C-15.164,-10.77 -15.349,-10.527 -15.53,-10.244C-15.677,-9.956 -15.786,-9.621 -15.813,-9.271C-15.871,-8.565 -15.587,-7.849 -15.068,-7.299C-15.436,-7.648 -15.161,-7.388 -15.239,-7.463L-15.224,-7.449L-15.193,-7.422L-14.766,-7.044L-14.645,-6.936C-14.599,-6.894 -14.561,-6.861 -14.563,-6.874L-14.512,-6.869C-14.46,-6.858 -14.504,-6.859 -14.392,-6.814L-14.142,-6.709C-13.799,-6.592 -13.446,-6.527 -13.096,-6.553C-12.745,-6.581 -12.41,-6.689 -12.122,-6.836C-11.839,-7.018 -11.596,-7.203 -11.429,-7.455C-11.262,-7.7 -11.152,-7.951 -11.108,-8.214C-11.071,-8.323 -11.075,-8.475 -11.059,-8.582L-11.057,-8.602L-11.054,-8.617C-11.003,-8.672 -11.507,-8.144 -11.289,-8.376L-11.216,-8.503L-11.071,-8.756L-10.927,-9.007C-10.884,-9.085 -10.8,-9.204 -10.871,-9.173C-10.94,-9.179 -11.005,-9.174 -11.062,-9.16C-11.088,-9.161 -11.122,-9.129 -11.136,-9.15L-11.169,-9.222C-11.202,-9.31 -11.245,-9.39 -11.303,-9.467C-11.372,-9.6 -11.518,-9.722 -11.59,-9.797C-11.793,-9.965 -11.983,-10.02 -12.092,-10.037C-12.209,-10.052 -12.279,-10.024 -12.314,-10.008C-12.35,-9.989 -12.356,-9.982 -12.368,-9.982C-12.381,-9.979 -12.372,-9.992 -12.373,-9.991L-12.052,-9.685Z" style="fill:white;fill-rule:nonzero;"/>
        </g>
        <g transform="matrix(0,1,1,0,336.071,403.606)">
            <path d="M12.667,-12.666C5.855,-12.666 0.333,-6.995 0.333,0C0.333,6.996 5.855,12.667 12.667,12.667C19.479,12.667 25,6.996 25,0C25,-6.995 19.479,-12.666 12.667,-12.666" style="fill:white;fill-rule:nonzero;"/>
        </g>
        <g transform="matrix(0,1,1,0,336.071,403.606)">
            <ellipse cx="12.667" cy="0.001" rx="12.333" ry="12.667" style="fill:white;stroke:rgb(29,29,27);stroke-width:1px;"/>
        </g>
    </g>
</svg>
